P2
#generation du pgm
8 8
15
0 0 0 0 3 3 6 7 
0 0 0 0 3 3 8 9 
0 0 0 0 1 0 10 12 
0 0 0 0 3 4 13 14 
0 0 2 3 4 4 7 8 
0 0 10 11 4 4 9 10 
2 3 6 7 2 5 8 9 
10 11 12 13 14 15 0 1 
