P2
#generation du pgm
8 8
16
15 15 15 15 11 11 1 1 
15 15 15 15 11 11 1 1 
15 15 15 15 7 7 15 15 
15 15 15 15 7 7 15 15 
0 2 11 9 15 15 7 7 
1 3 10 12 15 15 7 7 
7 7 16 14 2 0 12 10 
7 7 13 15 1 3 11 9 
