P2
#generation du pgm
4 4
16
15 15 6 6 
15 15 6 6 
1 11 15 7 
7 15 1 11 
