P2
#generation du pgm
16 16
255
4 4 4 4 4 4 4 4 98 98 98 98 98 98 98 98 
4 4 4 4 4 4 4 4 98 98 98 98 98 98 98 98 
4 4 4 4 4 4 4 4 98 98 98 98 98 98 98 98 
4 4 4 4 4 4 4 4 98 98 98 98 98 98 98 98 
210 10 210 10 46 46 210 10 98 98 98 98 98 98 98 98 
10 210 10 210 46 46 10 210 98 98 98 98 98 98 98 98 
210 10 210 10 210 10 210 10 98 98 98 98 98 98 98 98 
10 210 10 210 10 210 10 210 98 98 98 98 98 98 98 98 
254 254 254 254 1 1 1 1 200 200 200 200 200 200 200 200 
254 254 254 254 1 1 1 1 200 200 200 200 200 200 200 200 
254 254 254 254 1 1 1 1 200 200 200 200 200 200 200 200 
254 254 254 254 1 1 1 1 200 200 200 200 200 200 200 200 
254 254 254 254 254 254 254 254 200 200 200 200 200 200 200 200 
254 254 254 254 254 254 254 254 200 200 200 200 200 200 200 200 
254 254 254 254 254 254 254 254 200 200 200 200 200 200 200 200 
254 254 254 254 254 254 254 254 200 200 200 200 200 200 200 200 
